M48
; DRILL file {KiCad (5.1.9)-1} date 08/17/24 09:13:55
; FORMAT={-:-/ absolute / metric / decimal}
; #@! TF.CreationDate,2024-08-17T09:13:55+09:00
; #@! TF.GenerationSoftware,Kicad,Pcbnew,(5.1.9)-1
FMAT,2
METRIC
T1C0.300
T2C0.800
T3C1.000
T4C3.200
%
G90
G05
T1
X4.386Y53.076
X9.452Y27.583
X11.414Y47.02
X12.928Y24.836
X13.737Y26.7
X15.82Y49.169
X16.719Y51.171
X17.42Y50.759
X17.636Y52.335
X18.223Y30.116
X19.121Y30.741
X20.268Y66.649
X20.556Y67.652
X21.362Y67.624
X25.4Y39.31
X27.121Y39.87
X32.136Y46.802
X32.183Y33.52
X40.938Y42.881
X71.689Y22.124
X74.442Y50.002
T2
X20.32Y77.805
X20.32Y62.565
X20.32Y57.49
X20.32Y49.87
X20.32Y45.085
X20.32Y37.465
X20.32Y31.75
X20.32Y24.13
X20.32Y18.415
X20.32Y10.795
X22.86Y77.805
X22.86Y62.565
X22.86Y57.49
X22.86Y49.87
X22.86Y45.085
X22.86Y37.465
X22.86Y31.75
X22.86Y24.13
X22.86Y18.415
X22.86Y10.795
X25.4Y77.805
X25.4Y62.565
X25.4Y57.49
X25.4Y49.87
X25.4Y45.085
X25.4Y37.465
X25.4Y31.75
X25.4Y24.13
X25.4Y18.415
X25.4Y10.795
X27.94Y77.805
X27.94Y62.565
X27.94Y57.49
X27.94Y49.87
X27.94Y45.085
X27.94Y37.465
X27.94Y31.75
X27.94Y24.13
X27.94Y18.415
X27.94Y10.795
X30.48Y77.805
X30.48Y62.565
X30.48Y57.49
X30.48Y49.87
X30.48Y45.085
X30.48Y37.465
X30.48Y31.75
X30.48Y24.13
X30.48Y18.415
X30.48Y10.795
X33.02Y77.805
X33.02Y62.565
X33.02Y57.49
X33.02Y49.87
X33.02Y45.085
X33.02Y37.465
X33.02Y31.75
X33.02Y24.13
X33.02Y18.415
X33.02Y10.795
X35.56Y77.805
X35.56Y62.565
X35.56Y57.49
X35.56Y49.87
X35.56Y45.085
X35.56Y37.465
X35.56Y31.75
X35.56Y24.13
X35.56Y18.415
X35.56Y10.795
X38.1Y77.805
X38.1Y62.565
X38.1Y57.49
X38.1Y49.87
X38.735Y42.545
X38.735Y40.045
X38.735Y29.21
X38.735Y26.71
X38.735Y15.875
X38.735Y13.375
X40.64Y77.805
X40.64Y62.565
X40.64Y57.49
X40.64Y49.87
X43.18Y77.805
X43.18Y62.565
X43.18Y57.49
X43.18Y49.87
X43.815Y19.01
X43.815Y16.51
X45.72Y90.17
X45.72Y87.67
X45.72Y77.805
X45.72Y62.565
X46.355Y54.864
X46.355Y52.364
X47.625Y26.035
X47.625Y10.795
X48.26Y77.805
X48.26Y62.565
X50.165Y26.035
X50.165Y10.795
X50.8Y77.805
X50.8Y62.565
X52.705Y26.035
X52.705Y10.795
X53.34Y77.805
X53.34Y62.565
X55.245Y26.035
X55.245Y10.795
X57.15Y71.08
X57.15Y68.58
X57.785Y26.035
X57.785Y10.795
X59.69Y47.625
X59.69Y32.385
X60.325Y26.035
X60.325Y10.795
X62.23Y47.625
X62.23Y32.385
X62.865Y26.035
X62.865Y10.795
X64.77Y47.625
X64.77Y32.385
X65.405Y26.035
X65.405Y10.795
X66.04Y34.925
X67.31Y47.625
X67.31Y32.385
X67.945Y26.035
X67.945Y10.795
X68.58Y34.925
X69.85Y47.625
X69.85Y32.385
X70.485Y26.035
X70.485Y10.795
X72.39Y47.625
X72.39Y32.385
X73.025Y26.035
X73.025Y10.795
X74.93Y47.625
X74.93Y32.385
X75.565Y26.035
X75.565Y10.795
X76.2Y34.925
X77.47Y47.625
X77.47Y32.385
X78.105Y26.035
X78.105Y10.795
X78.74Y34.925
X80.01Y47.625
X80.01Y32.385
X80.645Y26.035
X80.645Y10.795
X82.55Y47.625
X82.55Y32.385
X83.185Y26.035
X83.185Y10.795
X85.09Y47.625
X85.09Y32.385
X85.725Y26.035
X85.725Y10.795
X87.63Y47.625
X87.63Y32.385
X88.265Y26.035
X88.265Y10.795
X90.805Y26.035
X90.805Y10.795
X93.345Y26.035
X93.345Y10.795
X95.885Y26.035
X95.885Y10.795
T3
X5.46Y77.5
X5.46Y74.96
X5.46Y72.42
X5.46Y69.88
X5.46Y67.34
X5.46Y64.8
X5.46Y62.26
X5.46Y59.72
X5.46Y57.18
X5.46Y54.64
X5.46Y52.1
X5.46Y49.56
X5.46Y47.02
X5.46Y44.48
X5.46Y41.94
X5.46Y39.4
X5.46Y36.86
X5.46Y34.32
X5.46Y31.78
X5.46Y29.24
X5.46Y26.7
X5.46Y24.16
X5.46Y21.62
X5.46Y19.08
X5.46Y16.54
X8.0Y77.5
X8.0Y74.96
X8.0Y72.42
X8.0Y69.88
X8.0Y67.34
X8.0Y64.8
X8.0Y62.26
X8.0Y59.72
X8.0Y57.18
X8.0Y54.64
X8.0Y52.1
X8.0Y49.56
X8.0Y47.02
X8.0Y44.48
X8.0Y41.94
X8.0Y39.4
X8.0Y36.86
X8.0Y34.32
X8.0Y31.78
X8.0Y29.24
X8.0Y26.7
X8.0Y24.16
X8.0Y21.62
X8.0Y19.08
X8.0Y16.54
X10.16Y88.265
X10.16Y85.725
X36.83Y95.885
X39.37Y95.885
X41.91Y95.885
X50.8Y95.885
X53.34Y95.885
X55.88Y95.885
X66.675Y96.52
X66.675Y93.98
X66.675Y68.58
X69.215Y68.58
X70.5Y60.5
X71.755Y68.58
X73.04Y60.5
X74.295Y68.58
X75.58Y60.5
X76.835Y68.58
X78.12Y60.5
X79.375Y68.58
X80.66Y60.5
X81.915Y68.58
X83.2Y60.5
X84.455Y68.58
X86.995Y96.52
X86.995Y93.98
X86.995Y68.58
T4
X5.0Y95.0
X5.0Y5.0
X95.0Y95.0
X95.0Y5.0
T3
G00X18.795Y89.09
M15
G01X18.795Y87.09
M16
G05
G00X24.495Y91.09
M15
G01X22.495Y91.09
M16
G05
G00X24.495Y85.09
M15
G01X22.495Y85.09
M16
G05
T0
M30
